<svg version="1.1" id="Layer_1" xmlns="http://www.w3.org/2000/svg" xmlns:xlink="http://www.w3.org/1999/xlink" x="0px" y="0px" viewBox="0 0 141.732 141.732" enable-background="new 0 0 141.732 141.732" xml:space="preserve">
  <g>
    <defs>
      <rect id="SVGID_1_" x="0" y="0" width="141.732" height="141.732"/>
    </defs>
    <clipPath id="SVGID_2_">
      <use xlink:href="#SVGID_1_" overflow="visible"/>
    </clipPath>
    <rect x="0" y="0" clip-path="url(#SVGID_2_)" fill="#ED1C24" width="141.732" height="141.732"/>
    <g clip-path="url(#SVGID_2_)"/>
    <path clip-path="url(#SVGID_2_)" fill="#FFFFFF" d="M103.281 123.886c-0.371 0-0.881 0-1.299-0.42 -0.422-0.42-0.422-0.928-0.422-1.301v-12.555c0-0.578 0.01-0.828 0.209-1.201 0.236-0.428 0.701-0.682 1.25-0.682 0.547 0 1.012 0.254 1.248 0.678 0.199 0.377 0.209 0.625 0.209 1.205v11.621h5.135c0.529 0 0.799 0.025 1.094 0.186 0.395 0.228 0.627 0.654 0.627 1.142 0 0.486-0.232 0.91-0.623 1.137 -0.299 0.164-0.568 0.189-1.098 0.189H103.281zM21.561 123.972c-0.548 0-1.014-0.254-1.247-0.68 -0.2-0.375-0.208-0.625-0.208-1.203v-11.621h-2.639c-0.51 0-0.786-0.018-1.094-0.186 -0.395-0.227-0.624-0.652-0.624-1.141 0-0.488 0.229-0.912 0.618-1.137 0.302-0.164 0.572-0.191 1.1-0.191h8.191c0.527 0 0.798 0.027 1.092 0.188 0.394 0.228 0.626 0.652 0.626 1.141 0 0.488-0.232 0.914-0.62 1.137 -0.3 0.164-0.568 0.189-1.098 0.189h-2.639v11.621c0 0.578-0.008 0.83-0.208 1.201C22.575 123.718 22.109 123.972 21.561 123.972M31.157 123.972c-0.548 0-1.017-0.254-1.25-0.68 -0.2-0.375-0.208-0.625-0.208-1.203v-12.479c0-0.578 0.008-0.826 0.206-1.201 0.237-0.428 0.704-0.682 1.252-0.682 0.546 0 1.012 0.254 1.246 0.678 0.202 0.377 0.21 0.627 0.21 1.205v12.479c0 0.578-0.008 0.83-0.208 1.201C32.171 123.718 31.703 123.972 31.157 123.972M46.729 123.972c-0.794 0-1.136-0.609-1.411-1.102l-3.675-6.475 -2.321 2.791v2.902c0 0.578-0.008 0.828-0.208 1.201 -0.234 0.428-0.702 0.682-1.25 0.682 -0.546 0-1.013-0.254-1.248-0.68 -0.2-0.375-0.208-0.625-0.208-1.203v-12.479c0-0.578 0.008-0.828 0.206-1.201 0.237-0.428 0.704-0.682 1.25-0.682 0.548 0 1.014 0.254 1.25 0.678 0.2 0.377 0.208 0.627 0.208 1.205v5.445l5.372-6.517c0.382-0.461 0.72-0.811 1.296-0.811 0.334 0 0.649 0.117 0.91 0.34 0.338 0.283 0.525 0.66 0.525 1.064 0 0.416-0.182 0.703-0.588 1.191l-3.176 3.834 4.149 7.293c0.274 0.479 0.395 0.727 0.408 1.098 0.015 0.506-0.24 0.938-0.714 1.223C47.229 123.939 46.931 123.972 46.729 123.972M61.147 123.972c-0.795 0-1.137-0.609-1.412-1.102l-3.675-6.475 -2.321 2.791v2.902c0 0.578-0.006 0.828-0.206 1.201 -0.236 0.428-0.704 0.682-1.25 0.682 -0.548 0-1.017-0.254-1.25-0.68 -0.2-0.375-0.208-0.625-0.208-1.203v-12.479c0-0.578 0.008-0.828 0.208-1.201 0.235-0.428 0.702-0.682 1.25-0.682 0.546 0 1.012 0.254 1.248 0.678 0.202 0.377 0.208 0.627 0.208 1.205v5.445l5.372-6.517c0.384-0.461 0.722-0.811 1.296-0.811 0.332 0 0.647 0.117 0.912 0.338 0.338 0.287 0.521 0.664 0.521 1.066 0 0.416-0.18 0.703-0.586 1.191l-3.176 3.834 4.152 7.293c0.271 0.479 0.392 0.727 0.405 1.098 0.015 0.504-0.237 0.938-0.714 1.223C61.649 123.939 61.349 123.972 61.147 123.972M86.347 114.785c1.451 0 2.354-0.818 2.354-2.137 0-1.344-0.902-2.18-2.354-2.18h-3.205v4.316H86.347zM90.201 123.972c-0.793 0-1.135-0.609-1.41-1.102l-3.152-5.518h-2.496v4.736c0 0.578-0.008 0.828-0.207 1.201 -0.236 0.428-0.701 0.682-1.25 0.682 -0.549 0-1.016-0.254-1.248-0.68 -0.201-0.377-0.211-0.625-0.211-1.203v-12.555c0-0.371 0-0.881 0.422-1.299 0.42-0.422 0.928-0.422 1.299-0.422h4.574c3.047 0 5.094 1.934 5.094 4.813 0 2.043-1.09 3.619-2.936 4.279l2.604 4.545c0.273 0.479 0.395 0.727 0.408 1.098 0.014 0.504-0.24 0.938-0.715 1.223C90.703 123.939 90.404 123.972 90.201 123.972M96.31 123.972c-0.547 0-1.016-0.254-1.25-0.68 -0.199-0.373-0.207-0.625-0.207-1.203v-12.479c0-0.578 0.008-0.828 0.207-1.201 0.236-0.428 0.703-0.682 1.25-0.682 0.547 0 1.014 0.254 1.248 0.678 0.201 0.379 0.209 0.627 0.209 1.205v12.479c0 0.578-0.008 0.828-0.207 1.201C97.326 123.718 96.859 123.972 96.31 123.972M121.488 118.205l-2.078-5.684 -2.082 5.684H121.488zM124.548 123.972c-0.303 0-0.586-0.1-0.822-0.293 -0.279-0.225-0.398-0.48-0.596-1.012l-0.705-1.897h-6.035l-0.707 1.897c-0.195 0.531-0.313 0.787-0.598 1.016 -0.23 0.189-0.516 0.289-0.82 0.289 -0.404 0-0.803-0.162-1.062-0.436 -0.598-0.615-0.342-1.301-0.135-1.85l4.748-12.643c0.168-0.463 0.305-0.691 0.539-0.912 0.287-0.275 0.623-0.404 1.055-0.404 0.426 0 0.762 0.129 1.053 0.404 0.234 0.221 0.369 0.451 0.537 0.914l4.75 12.641c0.205 0.549 0.463 1.234-0.141 1.854C125.351 123.81 124.955 123.972 124.548 123.972M70.839 124.017c-3.382 0-5.836-2.373-5.836-5.641v-8.766c0-0.578 0.008-0.828 0.208-1.201 0.236-0.428 0.702-0.682 1.25-0.682 0.546 0 1.014 0.254 1.248 0.678 0.202 0.377 0.21 0.627 0.21 1.205v8.658c0 1.906 1.118 3.094 2.92 3.094 1.799 0 2.92-1.188 2.92-3.094v-8.658c0-0.578 0.008-0.826 0.207-1.201 0.236-0.428 0.705-0.682 1.25-0.682 0.547 0 1.016 0.254 1.248 0.678 0.201 0.377 0.209 0.627 0.209 1.205v8.766C76.673 121.644 74.22 124.017 70.839 124.017"/>
    <path clip-path="url(#SVGID_2_)" fill="#FFFFFF" d="M99.535 83.439l-1.379 7.127c-0.273 1.422-1.684 2.584-3.129 2.584H46.706c-1.446 0-2.857-1.162-3.13-2.584l-1.592-8.232M41.984 82.334l-7.646-39.025c3.687-1.606 7.946 0.945 8.448 5.078 0.156 1.287-0.021 2.531-0.456 3.664 4-0.326 7.592 2.57 8.084 6.6 0.5 4.129-2.432 7.889-6.563 8.398 -1.336 0.16-2.107-0.027-3.258-0.51 0.008 0.4 0.046 0.797 0.092 1.197 0.967 7.841 6.126 11.191 14.03 11.191 6.92 0 14.244-4.361 14.244-12.257 0-0.537-0.01-1.066-0.074-1.596 -1.218 0.852-2.739 1.363-4.346 1.363 -4.156 0-7.536-3.377-7.536-7.547 0-4.055 3.202-7.367 7.22-7.535 -0.573-1.068-0.898-2.283-0.898-3.574 0-4.166 3.376-7.545 7.536-7.545 4.169 0 7.545 3.379 7.545 7.545 0 1.291-0.334 2.506-0.91 3.574 4.02 0.168 7.231 3.48 7.231 7.535 0 4.17-3.381 7.547-7.545 7.547 -1.605 0-3.102-0.512-4.326-1.373 -0.057 0.527-0.084 1.068-0.084 1.606 0 7.896 7 12.257 14.293 12.257 7.9 0 13.014-3.424 13.98-11.255 0.045-0.391 0.094-0.781 0.113-1.162 -1.154 0.457-1.924 0.643-3.225 0.475 -4.139-0.502-7.07-4.27-6.57-8.399 0.502-4.029 4.086-6.926 8.084-6.6 -0.438-1.123-0.613-2.375-0.455-3.658 0.51-4.139 4.316-6.404 8.4-5.078l-7.859 40.189"/>
  </g>
</svg>
